<mxfile host="app.diagrams.net" modified="2023-09-12T15:00:17.964Z" agent="Mozilla/5.0 (Windows NT 10.0; Win64; x64) AppleWebKit/537.36 (KHTML, like Gecko) Chrome/116.0.0.0 Safari/537.36 Edg/116.0.1938.69" etag="gheadxOLSSwL8APLqxT_" version="21.7.4" type="device">
  <diagram id="C5RBs43oDa-KdzZeNtuy" name="Page-1">
    <mxGraphModel dx="872" dy="473" grid="1" gridSize="10" guides="1" tooltips="1" connect="1" arrows="1" fold="1" page="1" pageScale="1" pageWidth="827" pageHeight="1169" math="0" shadow="0">
      <root>
        <mxCell id="WIyWlLk6GJQsqaUBKTNV-0" />
        <mxCell id="WIyWlLk6GJQsqaUBKTNV-1" parent="WIyWlLk6GJQsqaUBKTNV-0" />
        <mxCell id="OP5HIGfKZazKs4oePYQv-2" value="Registrar Leitor" style="ellipse;whiteSpace=wrap;html=1;" vertex="1" parent="WIyWlLk6GJQsqaUBKTNV-1">
          <mxGeometry x="120" y="170" width="120" height="80" as="geometry" />
        </mxCell>
        <mxCell id="OP5HIGfKZazKs4oePYQv-3" value="listar leitores registrados" style="ellipse;whiteSpace=wrap;html=1;" vertex="1" parent="WIyWlLk6GJQsqaUBKTNV-1">
          <mxGeometry x="120" y="280" width="120" height="80" as="geometry" />
        </mxCell>
        <mxCell id="OP5HIGfKZazKs4oePYQv-22" style="edgeStyle=orthogonalEdgeStyle;rounded=0;orthogonalLoop=1;jettySize=auto;html=1;exitX=0.5;exitY=1;exitDx=0;exitDy=0;entryX=0.5;entryY=0;entryDx=0;entryDy=0;entryPerimeter=0;" edge="1" parent="WIyWlLk6GJQsqaUBKTNV-1" source="OP5HIGfKZazKs4oePYQv-4" target="OP5HIGfKZazKs4oePYQv-20">
          <mxGeometry relative="1" as="geometry">
            <mxPoint x="72" y="80" as="targetPoint" />
            <Array as="points">
              <mxPoint x="180" y="490" />
              <mxPoint x="73" y="490" />
              <mxPoint x="73" y="160" />
            </Array>
          </mxGeometry>
        </mxCell>
        <mxCell id="OP5HIGfKZazKs4oePYQv-4" value="realizar empréstimo de livros" style="ellipse;whiteSpace=wrap;html=1;" vertex="1" parent="WIyWlLk6GJQsqaUBKTNV-1">
          <mxGeometry x="120" y="390" width="120" height="80" as="geometry" />
        </mxCell>
        <mxCell id="OP5HIGfKZazKs4oePYQv-5" value="realizar devolução de livros" style="ellipse;whiteSpace=wrap;html=1;" vertex="1" parent="WIyWlLk6GJQsqaUBKTNV-1">
          <mxGeometry x="630" y="170" width="120" height="80" as="geometry" />
        </mxCell>
        <mxCell id="OP5HIGfKZazKs4oePYQv-6" value="listar livros disponíveis&amp;nbsp;" style="ellipse;whiteSpace=wrap;html=1;" vertex="1" parent="WIyWlLk6GJQsqaUBKTNV-1">
          <mxGeometry x="630" y="280" width="120" height="80" as="geometry" />
        </mxCell>
        <mxCell id="OP5HIGfKZazKs4oePYQv-7" value="listar livros emprestados" style="ellipse;whiteSpace=wrap;html=1;" vertex="1" parent="WIyWlLk6GJQsqaUBKTNV-1">
          <mxGeometry x="630" y="390" width="120" height="80" as="geometry" />
        </mxCell>
        <mxCell id="OP5HIGfKZazKs4oePYQv-8" value="mostrar histórico de ações&amp;nbsp;" style="ellipse;whiteSpace=wrap;html=1;" vertex="1" parent="WIyWlLk6GJQsqaUBKTNV-1">
          <mxGeometry x="630" y="490" width="120" height="80" as="geometry" />
        </mxCell>
        <mxCell id="OP5HIGfKZazKs4oePYQv-9" value="Actor" style="shape=umlActor;verticalLabelPosition=bottom;verticalAlign=top;html=1;outlineConnect=0;" vertex="1" parent="WIyWlLk6GJQsqaUBKTNV-1">
          <mxGeometry x="399" y="300" width="30" height="60" as="geometry" />
        </mxCell>
        <mxCell id="OP5HIGfKZazKs4oePYQv-25" style="edgeStyle=orthogonalEdgeStyle;rounded=0;orthogonalLoop=1;jettySize=auto;html=1;entryX=-0.03;entryY=0.593;entryDx=0;entryDy=0;entryPerimeter=0;" edge="1" parent="WIyWlLk6GJQsqaUBKTNV-1" source="OP5HIGfKZazKs4oePYQv-13" target="OP5HIGfKZazKs4oePYQv-5">
          <mxGeometry relative="1" as="geometry" />
        </mxCell>
        <mxCell id="OP5HIGfKZazKs4oePYQv-13" value="L&lt;b&gt;eito&lt;/b&gt;r" style="text;html=1;align=center;verticalAlign=middle;resizable=0;points=[];autosize=1;strokeColor=none;fillColor=none;" vertex="1" parent="WIyWlLk6GJQsqaUBKTNV-1">
          <mxGeometry x="384.5" y="210" width="60" height="30" as="geometry" />
        </mxCell>
        <mxCell id="OP5HIGfKZazKs4oePYQv-20" value="Actor" style="shape=umlActor;verticalLabelPosition=bottom;verticalAlign=top;html=1;outlineConnect=0;" vertex="1" parent="WIyWlLk6GJQsqaUBKTNV-1">
          <mxGeometry x="399" y="160" width="31" height="60" as="geometry" />
        </mxCell>
        <mxCell id="OP5HIGfKZazKs4oePYQv-23" style="edgeStyle=orthogonalEdgeStyle;rounded=0;orthogonalLoop=1;jettySize=auto;html=1;entryX=-0.013;entryY=0.638;entryDx=0;entryDy=0;entryPerimeter=0;" edge="1" parent="WIyWlLk6GJQsqaUBKTNV-1" source="OP5HIGfKZazKs4oePYQv-21" target="OP5HIGfKZazKs4oePYQv-8">
          <mxGeometry relative="1" as="geometry">
            <Array as="points">
              <mxPoint x="420" y="520" />
              <mxPoint x="610" y="520" />
              <mxPoint x="610" y="541" />
            </Array>
          </mxGeometry>
        </mxCell>
        <mxCell id="OP5HIGfKZazKs4oePYQv-24" style="edgeStyle=orthogonalEdgeStyle;rounded=0;orthogonalLoop=1;jettySize=auto;html=1;entryX=0.083;entryY=0.875;entryDx=0;entryDy=0;entryPerimeter=0;" edge="1" parent="WIyWlLk6GJQsqaUBKTNV-1" target="OP5HIGfKZazKs4oePYQv-6">
          <mxGeometry relative="1" as="geometry">
            <mxPoint x="626" y="430" as="sourcePoint" />
            <Array as="points">
              <mxPoint x="450" y="430" />
              <mxPoint x="450" y="350" />
            </Array>
          </mxGeometry>
        </mxCell>
        <mxCell id="OP5HIGfKZazKs4oePYQv-26" style="edgeStyle=orthogonalEdgeStyle;rounded=0;orthogonalLoop=1;jettySize=auto;html=1;entryX=1;entryY=0.5;entryDx=0;entryDy=0;" edge="1" parent="WIyWlLk6GJQsqaUBKTNV-1" source="OP5HIGfKZazKs4oePYQv-21" target="OP5HIGfKZazKs4oePYQv-3">
          <mxGeometry relative="1" as="geometry" />
        </mxCell>
        <mxCell id="OP5HIGfKZazKs4oePYQv-27" style="edgeStyle=orthogonalEdgeStyle;rounded=0;orthogonalLoop=1;jettySize=auto;html=1;entryX=1.029;entryY=0.643;entryDx=0;entryDy=0;entryPerimeter=0;" edge="1" parent="WIyWlLk6GJQsqaUBKTNV-1" source="OP5HIGfKZazKs4oePYQv-21" target="OP5HIGfKZazKs4oePYQv-4">
          <mxGeometry relative="1" as="geometry">
            <Array as="points">
              <mxPoint x="414" y="440" />
              <mxPoint x="244" y="440" />
            </Array>
          </mxGeometry>
        </mxCell>
        <mxCell id="OP5HIGfKZazKs4oePYQv-21" value="&lt;b&gt;Bibliotecário&lt;/b&gt;" style="text;html=1;align=center;verticalAlign=middle;resizable=0;points=[];autosize=1;strokeColor=none;fillColor=none;" vertex="1" parent="WIyWlLk6GJQsqaUBKTNV-1">
          <mxGeometry x="364" y="350" width="100" height="30" as="geometry" />
        </mxCell>
      </root>
    </mxGraphModel>
  </diagram>
</mxfile>
